<svg width="159" height="232" viewBox="0 0 159 232" fill="none" xmlns="http://www.w3.org/2000/svg">
<g opacity="0.05">
<path d="M110.545 22.858C110.545 22.858 95.5848 0 58.4832 0C21.3816 0 5.42818 17.1762 5.42818 38.5158C5.42818 82.5991 83.4963 76.0682 83.4963 95.4159C83.4963 106.997 67.7545 108.086 62.4295 108.086C34.3549 108.086 22.261 87.949 22.261 87.949L0 103.367C0 103.367 14.2924 134.427 59.71 134.427C92.0836 134.427 112.76 119.564 112.76 95.171C112.76 50.2006 34.6752 55.2838 34.6752 38.026C34.6752 27.4732 45.8627 26.352 53.7661 26.352C80.8039 26.352 91.2206 41.2642 91.2206 41.2642L110.545 22.858Z" fill="#0032A0"/>
<path d="M148.889 231.525C222.332 231.525 263.907 176.85 263.907 176.85L247.297 157.476C247.297 157.476 210.977 202.724 148.889 202.724C86.8018 202.724 50.4818 157.476 50.4818 157.476L33.8716 176.85C33.8716 176.85 75.4514 231.525 148.889 231.525Z" fill="#FF4713"/>
<path d="M162.156 2.97144H133.892V132.201H162.156V2.97144Z" fill="#0032A0"/>
</g>
</svg>
