<svg width="51" height="40" viewBox="0 0 51 40" fill="none" xmlns="http://www.w3.org/2000/svg">
<path d="M19.064 3.94198C19.064 3.94198 16.4841 0 10.0857 0C3.68736 0 0.936116 2.96212 0.936116 6.64223C0.936116 14.2446 14.3993 13.1183 14.3993 16.4549C14.3993 18.4522 11.6846 18.6399 10.7663 18.6399C5.92468 18.6399 3.83901 15.1672 3.83901 15.1672L0 17.8262C0 17.8262 2.46479 23.1826 10.2973 23.1826C15.8803 23.1826 19.4459 20.6194 19.4459 16.4127C19.4459 8.65734 5.97991 9.53396 5.97991 6.55776C5.97991 4.73788 7.90925 4.54454 9.27223 4.54454C13.935 4.54454 15.7314 7.11621 15.7314 7.11621L19.064 3.94198Z" fill="#0032A0"/>
<path d="M50.497 3.94198C50.497 3.94198 47.917 0 41.5196 0C35.1222 0 32.3728 2.96212 32.3728 6.64224C32.3728 14.2446 45.837 13.1183 45.837 16.4549C45.837 18.4522 43.1222 18.6399 42.203 18.6399C37.3614 18.6399 35.2757 15.1672 35.2757 15.1672L31.4292 17.8224C31.4292 17.8224 33.894 23.1788 41.7265 23.1788C47.3085 23.1788 50.8742 20.6156 50.8742 16.409C50.8742 8.65358 37.4082 9.5302 37.4082 6.55401C37.4082 4.73413 39.3384 4.54078 40.7014 4.54078C45.3633 4.54078 47.155 7.11246 47.155 7.11246L50.497 3.94198Z" fill="#0032A0"/>
<path d="M25.6768 39.9276C38.3425 39.9276 45.5122 30.4988 45.5122 30.4988L42.6477 27.1575C42.6477 27.1575 36.3841 34.9607 25.6768 34.9607C14.9695 34.9607 8.70595 27.1575 8.70595 27.1575L5.84143 30.4988C5.84143 30.4988 13.0121 39.9276 25.6768 39.9276Z" fill="#FF4713"/>
<path d="M27.9646 0.512451H23.0902V22.7987H27.9646V0.512451Z" fill="#0032A0"/>
</svg>
