<svg width="78" height="78" viewBox="0 0 78 78" fill="none" xmlns="http://www.w3.org/2000/svg">
<path d="M22.3305 68.7241C22.3305 68.0935 22.8402 67.584 23.4706 67.584C24.1012 67.584 24.6152 68.0937 24.6152 68.7241V71.2806H53.3847V26.6752C43.7934 26.6752 34.2064 26.6752 24.6152 26.6752V63.5508C24.6152 64.1814 24.1012 64.6906 23.4706 64.6906C22.8401 64.6906 22.3305 64.1812 22.3305 63.5508V25.5308C22.3305 24.9003 22.8402 24.3905 23.4706 24.3905H32.017V21.0224H23.4706C22.8401 21.0224 22.3305 20.5085 22.3305 19.878V1.14441C22.3305 0.513856 22.8402 0 23.4706 0H54.5291C55.1597 0 55.6693 0.513856 55.6693 1.14441V7.92446C55.6693 8.55502 55.1595 9.0643 54.5291 9.0643C53.8944 9.0643 53.3845 8.55486 53.3845 7.92446V2.28424H24.6152V18.7377H53.3847V13.0979C53.3847 12.4674 53.8946 11.9578 54.5293 11.9578C55.1598 11.9578 55.6694 12.4675 55.6694 13.0979V19.878C55.6694 20.5085 55.1597 21.0224 54.5293 21.0224H45.9829V24.3905H54.5293C55.1598 24.3905 55.6694 24.9004 55.6694 25.5308V71.2807H57.9277C58.5583 71.2807 59.0722 71.7902 59.0722 72.4207V76.8602C59.0722 77.4907 58.5583 78 57.9277 78H20.0721C19.4416 78 18.9277 77.4906 18.9277 76.8602V72.4207C18.9277 71.79 19.4416 71.2807 20.0721 71.2807H22.3305V68.7241ZM32.9367 9.43571C32.3061 9.43571 31.7923 8.92186 31.7923 8.29131C31.7923 7.66076 32.3061 7.15147 32.9367 7.15147H45.0632C45.6938 7.15147 46.2076 7.66091 46.2076 8.29131C46.2076 8.92171 45.6938 9.43571 45.0632 9.43571H32.9367ZM32.9367 13.8709C32.3061 13.8709 31.7923 13.3612 31.7923 12.7308C31.7923 12.0961 32.3061 11.5864 32.9367 11.5864H42.1049C42.7354 11.5864 43.2493 12.0961 43.2493 12.7308C43.2493 13.3613 42.7354 13.8709 42.1049 13.8709H32.9367ZM28.2039 49.209C27.5734 49.209 27.0638 48.6993 27.0638 48.0646C27.0638 47.4341 27.5735 46.9245 28.2039 46.9245H33.5285C34.1589 46.9245 34.6685 47.4342 34.6685 48.0646C34.6685 48.6993 34.1588 49.209 33.5285 49.209H28.2039ZM34.3014 24.3905H43.6985V21.0224H34.3014V24.3905ZM40.1443 53.4366H48.6517V49.209H40.1443V53.4366ZM49.7959 55.7213H38.9999C38.3694 55.7213 37.8555 55.2115 37.8555 54.5811V48.0648C37.8555 47.4342 38.3694 46.9246 38.9999 46.9246H49.7959C50.4265 46.9246 50.9361 47.4344 50.9361 48.0648V54.5811C50.9362 55.2115 50.4265 55.7213 49.7959 55.7213ZM41.5867 44.7737C40.9562 44.7737 40.4466 44.2598 40.4466 43.6291C40.4466 42.9986 40.9563 42.4893 41.5867 42.4893H48.6515V31.7448H29.3482V42.4893H36.413C37.0435 42.4893 37.5531 42.9987 37.5531 43.6291C37.5531 44.2598 37.0434 44.7737 36.413 44.7737H28.2038C27.5732 44.7737 27.0637 44.2598 27.0637 43.6291V30.6048C27.0637 29.9742 27.5734 29.4604 28.2038 29.4604H49.7958C50.4263 29.4604 50.9359 29.9742 50.9359 30.6048V43.6291C50.9359 44.2598 50.4262 44.7737 49.7958 44.7737H41.5867ZM21.212 73.5651V75.7158H56.7878V73.5651C44.9293 73.5651 33.0706 73.5651 21.212 73.5651Z" fill="black"/>
<path d="M39.1444 55.7966H49.9404C50.571 55.7966 51.0807 55.2869 51.0805 54.6565V48.1401C51.0805 47.5097 50.571 47 49.9404 47H39.1444C38.5139 47 38 47.5096 38 48.1401V54.6565C38 55.2869 38.5139 55.7966 39.1444 55.7966Z" fill="#FF4713"/>
<path d="M40.7874 54H48.2155C48.6494 54 49.0001 53.7103 49 53.3519V49.6481C49 49.2897 48.6494 49 48.2155 49H40.7874C40.3536 49 40 49.2897 40 49.6481V53.3519C40 53.7103 40.3536 54 40.7874 54Z" fill="white"/>
</svg>
