<svg width="574" height="863" viewBox="0 0 574 863" fill="none" xmlns="http://www.w3.org/2000/svg">
<path d="M107.53 562.415L197.266 206.732C212.83 145.041 272.872 105.402 335.717 115.327L694.959 172.063C766.35 183.338 812.679 253.443 795.062 323.539L711.959 654.184C696.106 717.259 633.89 757.092 569.97 745.09L404.397 714.001L384.111 709.319L172.932 665.097C126.167 655.304 96.6327 608.934 107.53 562.415Z" fill="#F5F8FF"/>
<g opacity="0.05">
<path d="M393.491 394.711C393.491 394.711 381.245 376 350.874 376C320.503 376 307.443 390.06 307.443 407.529C307.443 443.615 371.35 438.269 371.35 454.107C371.35 463.587 358.463 464.478 354.104 464.478C331.123 464.478 321.223 447.994 321.223 447.994L303 460.616C303 460.616 314.7 486.041 351.878 486.041C378.379 486.041 395.304 473.874 395.304 453.906C395.304 417.094 331.385 421.255 331.385 407.128C331.385 398.489 340.543 397.572 347.013 397.572C369.146 397.572 377.673 409.779 377.673 409.779L393.491 394.711Z" fill="#0032A0"/>
<path d="M542.695 394.711C542.695 394.711 530.448 376 500.082 376C469.715 376 456.665 390.06 456.665 407.529C456.665 443.615 520.575 438.269 520.575 454.107C520.575 463.587 507.689 464.478 503.325 464.478C480.344 464.478 470.444 447.994 470.444 447.994L452.186 460.598C452.186 460.598 463.885 486.023 501.064 486.023C527.56 486.023 544.485 473.856 544.485 453.889C544.485 417.076 480.566 421.237 480.566 407.11C480.566 398.472 489.728 397.554 496.198 397.554C518.327 397.554 526.831 409.761 526.831 409.761L542.695 394.711Z" fill="#0032A0"/>
<path d="M424.88 565.525C485 565.525 519.033 520.769 519.033 520.769L505.436 504.909C505.436 504.909 475.705 541.948 424.88 541.948C374.056 541.948 344.325 504.909 344.325 504.909L330.728 520.769C330.728 520.769 364.765 565.525 424.88 565.525Z" fill="#FF4713"/>
<path d="M435.741 378.432H412.604V484.219H435.741V378.432Z" fill="#0032A0"/>
</g>
</svg>
