<svg width="71" height="71" viewBox="0 0 71 71" fill="none" xmlns="http://www.w3.org/2000/svg">
<rect y="7.52579" width="63.5364" height="63.5364" rx="10" transform="rotate(-6.80257 0 7.52579)" fill="#E9EFFF"/>
<g clip-path="url(#clip0)">
<path d="M54.9637 35.3257C54.7822 35.5252 54.5607 35.6939 54.3171 35.8227C54.2754 35.2309 54.0924 34.6565 53.7498 34.1956C53.3589 33.6699 52.758 33.3031 52.0855 33.3682C51.447 33.4299 50.8812 33.8431 50.6611 34.4515C50.2245 35.6581 51.2946 36.8987 52.407 37.2098C52.5376 37.2463 52.6709 37.272 52.8053 37.2906C52.3265 38.1668 51.3035 38.6078 50.3175 38.6376C50.2927 35.2044 49.2285 31.9189 47.2349 29.1287C45.3713 26.5206 42.837 24.5289 39.8806 23.3412C40.2448 22.52 40.4486 21.6131 40.4486 20.6591C40.4486 16.9873 37.4516 14 33.7678 14C30.084 14 27.087 16.9873 27.087 20.659C27.087 21.5802 27.2759 22.4582 27.6167 23.2568C26.9135 23.5287 26.2268 23.8483 25.5662 24.2131C23.0198 22.2365 19.9722 22.9144 19.9407 22.9221C19.5839 23.0471 19.4343 23.2963 19.4919 23.6699L20.6645 28.3167C19.1341 30.2046 18.0298 32.4188 17.4477 34.7646H16.9525C15.3245 34.7647 14 36.0854 14 37.7089V41.8489C14 43.4724 15.3245 44.7931 16.9524 44.7931H18.0948C18.8736 46.7873 20.0185 48.5911 21.5023 50.1599C22.0521 50.7413 22.355 51.4902 22.355 52.2685V54.5032C22.355 55.3286 23.0272 56 23.8536 56H27.2344C28.0608 56 28.7331 55.3285 28.7331 54.5032V54.0777C28.7331 53.7761 28.9794 53.5309 29.2823 53.5309H37.9974C38.3003 53.5309 38.5466 53.7761 38.5466 54.0777V54.5032C38.5466 55.3286 39.2189 56 40.0452 56H43.4261C44.2525 56 44.9247 55.3285 44.9247 54.5032V52.2825C44.9247 51.4922 45.2172 50.7493 45.7485 50.1906C46.4302 49.4737 47.051 48.692 47.594 47.8675C48.0315 47.2031 47.0038 46.5265 46.5663 47.1908C46.0634 47.9546 45.4882 48.6786 44.8567 49.3428C44.107 50.1312 43.6942 51.1753 43.6942 52.2825V54.5032C43.6942 54.6501 43.574 54.7695 43.4261 54.7695H40.0452C39.8973 54.7695 39.7771 54.65 39.7771 54.5032V54.0777C39.7771 53.0977 38.9788 52.3004 37.9974 52.3004H29.2823C28.3009 52.3004 27.5026 53.0977 27.5026 54.0777V54.5032C27.5026 54.6501 27.3823 54.7695 27.2344 54.7695H23.8536C23.7057 54.7695 23.5854 54.65 23.5854 54.5032V52.2685C23.5854 51.1744 23.1631 50.1253 22.3962 49.3145C20.9293 47.7634 19.8201 45.9649 19.0996 43.969C19.0115 43.7252 18.7801 43.5627 18.5209 43.5627H16.9524C16.0029 43.5627 15.2305 42.7939 15.2305 41.8489V37.7089C15.2305 36.7639 16.003 35.9951 16.9524 35.9951H17.9364C18.2263 35.9951 18.4767 35.7929 18.5378 35.5097C19.0626 33.0774 20.1934 30.7797 21.8077 28.8651C21.9354 28.7137 21.9823 28.51 21.9338 28.3181L20.8556 24.0455C21.7933 23.99 23.6037 24.091 25.0909 25.4177C25.2903 25.5955 25.5816 25.6244 25.8119 25.4891C26.5755 25.0409 27.3803 24.6577 28.2088 24.3473C28.6076 24.9424 29.1005 25.4693 29.6653 25.9088C29.3061 26.0364 28.9527 26.1803 28.6073 26.3404C26.2829 27.4174 27.9703 31.0042 30.2775 29.9346C31.3858 29.421 32.565 29.1606 33.7824 29.1606C34.9908 29.1606 36.1621 29.4174 37.2638 29.9237C39.5796 30.9881 41.2473 27.3925 38.9227 26.3241C38.5818 26.1674 38.2331 26.027 37.8792 25.9019C38.4158 25.483 38.8871 24.985 39.2742 24.4244C42.0756 25.5169 44.4766 27.3845 46.2339 29.844C48.1013 32.4575 49.0884 35.5409 49.0884 38.7606C49.0884 40.6587 48.7458 42.5113 48.0702 44.2672C47.7921 44.9897 48.9321 45.4537 49.2186 44.7091C49.8161 43.1562 50.1722 41.5337 50.2819 39.8721C51.6953 39.8711 53.1041 39.1892 53.8385 37.9492C53.9751 37.7185 54.0843 37.4638 54.1647 37.1961C54.8032 37.0226 55.397 36.6762 55.834 36.1957C56.3655 35.611 55.4978 34.7382 54.9637 35.3257ZM38.4088 27.4422C39.2792 27.8422 38.635 29.1997 37.7776 28.8057C36.5136 28.2247 35.1693 27.9302 33.7822 27.9302C32.3848 27.9302 31.0316 28.229 29.76 28.8183C28.9102 29.212 28.2423 27.8657 29.1245 27.4568C29.7574 27.1635 30.4203 26.9294 31.0952 26.7603C31.9142 27.1181 32.8177 27.318 33.7677 27.318C34.7214 27.318 35.6284 27.1164 36.4499 26.7559C37.1206 26.9227 37.7791 27.1527 38.4088 27.4422ZM33.7678 26.0875C30.7625 26.0875 28.3175 23.6522 28.3175 20.659C28.3175 17.6656 30.7625 15.2305 33.7678 15.2305C36.7731 15.2305 39.2181 17.6657 39.2181 20.659C39.2181 23.6523 36.7731 26.0875 33.7678 26.0875ZM51.9131 35.3715C51.7559 35.0705 51.7417 34.6536 52.1682 34.5916C52.5974 34.5291 52.8758 35.0361 52.981 35.3752C53.0518 35.6032 53.0868 35.8452 53.0897 36.088C52.9843 36.079 52.8794 36.062 52.776 36.0351C52.4034 35.9382 52.0936 35.7169 51.9131 35.3715Z" fill="#020202"/>
<path d="M34.4852 20.1263C34.0306 19.9664 33.5289 19.7739 33.2539 19.559C33.0093 19.3681 33.3337 18.9412 33.504 18.8901C33.999 18.7417 34.3133 18.9896 34.3475 19.0183C34.3475 19.0183 34.7539 19.3525 35.164 18.9424C35.6152 18.4912 35.1706 18.1038 35.1706 18.1038C35.0114 17.9575 34.7242 17.7798 34.3515 17.6836V17.3585C34.3515 16.5631 33.1211 16.5631 33.1211 17.3585V17.7214C32.0012 18.0808 31.4844 19.7383 32.4965 20.5287C32.9102 20.8519 33.5005 21.0841 34.0766 21.2869C34.5016 21.4365 34.5149 21.7584 34.485 21.9368C34.4341 22.2411 34.1767 22.57 33.7321 22.5729C33.2549 22.5769 33.1196 22.5548 32.7612 22.3213C32.4765 22.1358 32.0953 22.2163 31.9099 22.501C31.7244 22.7857 31.8049 23.1668 32.0895 23.3523C32.4817 23.6078 32.7784 23.7231 33.1209 23.7717V24.1115C33.1209 24.907 34.3514 24.907 34.3514 24.1115V23.7068C35.1062 23.4639 35.5883 22.7976 35.6985 22.1399C35.8488 21.2439 35.3611 20.4346 34.4852 20.1263Z" fill="#FF4713"/>
<path d="M22.7491 35.0246C23.5409 35.0246 23.5422 33.7942 22.7491 33.7942C21.9573 33.7942 21.956 35.0246 22.7491 35.0246Z" fill="#FF4713"/>
</g>
<defs>
<clipPath id="clip0">
<rect width="42" height="42" fill="white" transform="translate(14 14)"/>
</clipPath>
</defs>
</svg>
