<svg width="12" height="29" viewBox="0 0 12 29" fill="none" xmlns="http://www.w3.org/2000/svg">
<path d="M3.955 1.49365C4.95941 0.417111 6.3813 0.0512009 7.72885 0.00882774C9.15113 -0.00529664 10.5734 0.00176555 11.9953 0.00176555C12.0016 1.69757 12.0016 3.38632 11.9953 5.08213C11.0785 5.08213 10.1551 5.08213 9.23838 5.08213C8.65812 5.03975 8.05947 5.5394 7.95344 6.19398C7.94092 7.32702 7.94718 8.45962 7.94718 9.59266C9.29434 9.59972 10.6419 9.59266 11.989 9.59972C11.8893 11.239 11.7085 12.8717 11.4964 14.4903C10.305 14.5044 9.11357 14.4903 7.92214 14.4974C7.90962 19.3314 7.9284 24.1584 7.91588 28.9929C6.14419 29 4.37915 28.9859 2.60745 29C2.57615 24.1659 2.60745 19.3319 2.58867 14.4974C1.72787 14.4903 0.860804 14.5044 0 14.4903C0.00626039 12.8647 0 11.2395 0 9.62091C0.860804 9.60678 1.72787 9.62091 2.58867 9.61385C2.61371 8.03765 2.56363 6.4544 2.61371 4.87821C2.70762 3.61893 3.1255 2.35921 3.955 1.49365Z" fill="white"/>
</svg>
