<svg width="27" height="27" viewBox="0 0 27 27" fill="none" xmlns="http://www.w3.org/2000/svg">
<path d="M13.5224 6.50439C9.63658 6.50439 6.47461 9.62024 6.47461 13.4505C6.47461 17.2803 9.63614 20.3961 13.5224 20.3961C17.4082 20.3961 20.5701 17.2803 20.5701 13.4505C20.5701 9.62024 17.4082 6.50439 13.5224 6.50439ZM13.5224 17.839C11.0515 17.839 9.04173 15.87 9.04173 13.4505C9.04173 11.0306 11.0515 9.062 13.5224 9.062C15.9928 9.062 18.003 11.0306 18.003 13.4505C18.003 15.8704 15.9932 17.839 13.5224 17.839Z" fill="white"/>
<path d="M19.2284 0H7.77157C3.48656 0 0 3.4726 0 7.74143V19.2586C0 23.527 3.48612 27 7.77157 27H19.2284C23.5139 27 27 23.527 27 19.2586V7.74143C27 3.47304 23.5139 0 19.2284 0ZM24.428 19.2586C24.428 22.1144 22.0954 24.438 19.2284 24.438H7.77157C4.90459 24.438 2.57198 22.1144 2.57198 19.2586V7.74143C2.57198 4.88558 4.90459 2.562 7.77157 2.562H19.2284C22.0954 2.562 24.428 4.88558 24.428 7.74143V19.2586Z" fill="white"/>
<path d="M20.6954 7.87253C21.6112 7.87253 22.3537 7.13298 22.3537 6.22069C22.3537 5.3084 21.6112 4.56885 20.6954 4.56885C19.7795 4.56885 19.0371 5.3084 19.0371 6.22069C19.0371 7.13298 19.7795 7.87253 20.6954 7.87253Z" fill="white"/>
</svg>
