<svg width="28" height="28" viewBox="0 0 28 28" fill="none" xmlns="http://www.w3.org/2000/svg">
<g clip-path="url(#clip0)">
<path d="M5.37925 28C4.97123 28 4.56492 27.8877 4.20304 27.6638C3.53803 27.253 3.14133 26.541 3.14133 25.7591V22.4779C0.799807 19.5113 -0.212128 15.8066 0.289674 12.005C1.09418 5.90561 6.10728 0.906401 12.2088 0.118771C16.5065 -0.436436 20.7251 0.972197 23.7876 3.9813C26.8503 6.99039 28.3322 11.1806 27.8541 15.4781C27.1614 21.7018 22.1357 26.8219 15.9049 27.6531C13.4209 27.9825 10.9087 27.6386 8.6039 26.6514L6.382 27.7616C6.0637 27.9206 5.72062 28 5.37925 28ZM12.4626 2.08731C7.23777 2.76172 2.94544 7.04188 2.25608 12.2645C1.81195 15.6332 2.74933 18.9106 4.89625 21.4916C5.04429 21.6697 5.12525 21.8945 5.12525 22.126V25.7591C5.12525 25.8762 5.19126 25.9411 5.24595 25.9762C5.30213 26.0099 5.39079 26.039 5.49504 25.9866L8.13777 24.6662C8.40822 24.5306 8.7278 24.5259 9.00294 24.6556C11.0821 25.6312 13.3771 25.9877 15.6421 25.6865C20.9823 24.9743 25.2885 20.5886 25.8824 15.2591C26.2928 11.5709 25.0221 7.97563 22.3967 5.39676C19.7717 2.81683 16.151 1.60965 12.4626 2.08731ZM12.3357 1.10293H12.3453H12.3357Z" fill="white"/>
<path d="M7.15845 17.0268L11.7125 10.5453C11.9022 10.2133 12.3397 10.123 12.6454 10.3522L15.6961 12.6401C15.9029 12.7952 16.1828 12.8095 16.4043 12.6766L20.1192 10.0507C20.6644 9.72369 21.2986 10.3112 21.0145 10.8798L17.3368 17.243C17.1712 17.5741 16.7589 17.6942 16.4415 17.5036L12.3687 15.06C12.1824 14.9483 11.9519 14.9393 11.7576 15.0365L7.99415 17.9102C7.4321 18.1915 6.84656 17.5726 7.15845 17.0268Z" fill="white"/>
</g>
<defs>
<clipPath id="clip0">
<rect width="28" height="28" fill="white"/>
</clipPath>
</defs>
</svg>
