<svg width="28" height="28" viewBox="0 0 28 28" fill="none" xmlns="http://www.w3.org/2000/svg">
<g clip-path="url(#clip0)">
<path d="M25.8627 20.2571C25.0128 19.5421 24.0422 18.9468 23.1924 18.3509C21.3713 17.0406 19.6722 17.0406 18.337 19.0658C17.6085 20.2571 16.5159 20.2571 15.424 19.7808C12.3891 18.3514 9.96143 16.3262 8.50493 13.2288C7.89773 11.9185 7.89773 10.6083 9.35479 9.65517C10.0833 9.1789 10.9326 8.58302 10.8113 7.3918C10.69 5.96245 7.16976 1.07852 5.71327 0.601695C5.10606 0.363563 4.49942 0.363563 3.89222 0.601695C0.614677 1.67385 -0.84182 4.41348 0.49335 7.51086C4.37753 17.0406 11.4179 23.5926 20.886 27.6425C21.4926 27.8806 22.0998 27.8806 22.3425 27.9997C24.5275 27.9997 27.0765 25.9744 27.8051 23.9498C28.5336 22.0436 27.0765 21.2101 25.8627 20.2571Z" fill="white"/>
<path d="M15.1802 1.43572C16.2897 1.60765 17.2955 1.84133 18.223 2.13009C18.3801 2.17905 18.5445 2.22301 18.6964 2.27531C18.7509 2.29422 18.8002 2.31704 18.854 2.33651C19.8366 2.68814 20.717 3.11322 21.4915 3.62843C24.2151 5.43946 25.6943 8.31541 26.2255 12.6335C26.2255 13.3479 25.9829 14.301 26.9541 14.301C26.9541 14.301 26.9541 14.301 26.9546 14.301C27.9258 14.301 27.6832 13.3479 27.6832 12.7526C27.7512 9.06708 25.9375 5.57021 23.1493 3.17331C21.4802 1.73895 19.4618 0.700742 17.2893 0.250071C17.0421 0.198884 16.7932 0.152704 16.5426 0.116539C16.1333 0.0581185 15.7194 0.0208408 15.3021 0.00637484C15.242 0.0213972 15.1723 0.026961 15.0963 0.026961C14.9115 0.0275174 14.6955 -0.00308368 14.4897 0.000254618C14.09 -0.000301766 13.7265 0.102073 13.7243 0.715764C13.7243 0.717433 13.7237 0.719102 13.7231 0.721328C13.7237 1.43572 14.5736 1.31666 15.1802 1.43572Z" fill="white"/>
<path d="M16.3953 3.46035C15.7887 3.34129 14.8175 2.98353 14.6962 3.93662C14.5748 4.8897 15.5455 4.77064 16.1527 4.8897C20.5222 5.84279 21.9786 7.3912 22.7072 11.5607C22.8285 12.1561 22.5859 13.1092 23.6784 12.9901C24.5277 12.871 24.1637 12.037 24.285 11.5607C24.285 7.51082 20.7648 3.93717 16.3953 3.46035Z" fill="white"/>
<path d="M16.7586 6.79547C16.2727 6.79547 15.7874 6.79547 15.666 7.27173C15.4234 7.98669 16.0306 8.10575 16.5159 8.22482C18.3364 8.46351 19.3076 9.41604 19.4289 11.2031C19.5502 11.68 19.7935 12.0372 20.2788 12.0372C21.0073 11.9181 21.0073 11.3222 21.0073 10.8459C21.0073 8.82126 18.8223 6.67696 16.7586 6.79547Z" fill="white"/>
</g>
<defs>
<clipPath id="clip0">
<rect width="28" height="28" fill="white"/>
</clipPath>
</defs>
</svg>
