<svg width="28" height="28" viewBox="0 0 28 28" fill="none" xmlns="http://www.w3.org/2000/svg">
<g clip-path="url(#clip0)">
<path d="M23.9211 4.06905C21.289 1.44632 17.7884 0.00138891 14.0588 0C6.37465 0 0.120022 6.22371 0.117231 13.8738C0.1163 16.3193 0.758278 18.7063 1.97804 20.8101L0 28L7.39065 26.0708C9.42684 27.1764 11.7198 27.7588 14.0528 27.7597H14.0584C21.7421 27.7597 27.9967 21.5351 28 13.8854C28.0023 10.1775 26.5537 6.69178 23.9211 4.06905ZM14.0593 25.4162H14.0547C11.9752 25.4152 9.93577 24.8592 8.15684 23.8087L7.73351 23.5587L3.34759 24.7036L4.51803 20.448L4.24264 20.0114C3.08289 18.1753 2.47022 16.0535 2.47115 13.8743C2.47348 7.51586 7.6721 2.34309 14.0635 2.34309C17.1585 2.34402 20.0679 3.54543 22.2557 5.72509C24.4435 7.90476 25.6475 10.802 25.6465 13.8836C25.6442 20.2429 20.4461 25.4162 14.0593 25.4162Z" fill="white"/>
<path d="M20.4154 16.779C20.067 16.6054 18.3546 15.7669 18.035 15.6512C17.7159 15.5354 17.4833 15.4776 17.2512 15.8248C17.019 16.172 16.3515 16.9526 16.1482 17.1841C15.9449 17.4156 15.7416 17.4443 15.3936 17.2707C15.0452 17.097 13.9226 16.7313 12.5922 15.5498C11.5566 14.6303 10.8574 13.4951 10.6541 13.1484C10.4508 12.8011 10.6323 12.6136 10.8067 12.441C10.9635 12.2854 11.1552 12.0359 11.3291 11.8335C11.5031 11.6312 11.5613 11.4863 11.6776 11.2553C11.7939 11.0238 11.7357 10.8215 11.6487 10.6479C11.5617 10.4743 10.8649 8.76774 10.5746 8.07375C10.2917 7.39781 10.0047 7.48948 9.79072 7.47883C9.58789 7.46865 9.35529 7.4668 9.12315 7.4668C8.89102 7.4668 8.51374 7.55337 8.19415 7.9006C7.87502 8.24783 6.97485 9.08627 6.97485 10.7928C6.97485 12.4993 8.22299 14.1479 8.39744 14.3789C8.57142 14.6104 10.8537 18.1119 14.3483 19.6138C15.1796 19.9712 15.8281 20.1841 16.3342 20.3439C17.1688 20.6078 17.928 20.5707 18.5286 20.4814C19.198 20.3818 20.5894 19.6429 20.8797 18.8332C21.17 18.0235 21.17 17.329 21.083 17.1845C20.996 17.0396 20.7639 16.9526 20.4154 16.779Z" fill="white"/>
</g>
<defs>
<clipPath id="clip0">
<rect width="28" height="28" fill="white"/>
</clipPath>
</defs>
</svg>
