<svg width="979" height="531" viewBox="0 0 979 531" fill="none" xmlns="http://www.w3.org/2000/svg">
<path d="M879.696 -35.4589C904.931 -35.1483 927.546 -19.8085 937.165 3.52326L1025.1 216.806C1039.99 252.923 1018.76 293.746 980.637 302.293L328.451 448.52C297.032 455.564 265.358 437.783 255.01 407.292L130.127 39.3003C116.157 -1.86571 147.092 -44.4757 190.561 -43.9407L879.696 -35.4589Z" fill="#F5F8FF"/>
<g opacity="0.1">
<path d="M511 -9.50006C537.333 67.1666 675.7 226 1018.5 248" stroke="url(#paint0_linear)"/>
<path d="M164.771 22.4999C170.364 103.37 262.907 292.603 588.332 402.576" stroke="url(#paint1_linear)"/>
<path d="M627 -11.0001C653.333 65.6666 791.7 224.5 1134.5 246.5" stroke="url(#paint2_linear)"/>
<path d="M277.206 51.074C282.799 131.944 375.342 321.177 700.768 431.151" stroke="url(#paint3_linear)"/>
<path d="M421 33.9999C452.667 129.167 597.5 312.5 923.5 284.5" stroke="url(#paint4_linear)"/>
<path d="M66.5786 41.2239C72.5353 141.344 164.983 355.916 487.122 413.245" stroke="url(#paint5_linear)"/>
</g>
<defs>
<linearGradient id="paint0_linear" x1="764.75" y1="-9.50006" x2="764.75" y2="248" gradientUnits="userSpaceOnUse">
<stop offset="0.364583" stop-color="#215EE9"/>
<stop offset="1" stop-color="#215EE9" stop-opacity="0"/>
</linearGradient>
<linearGradient id="paint1_linear" x1="409.874" y1="88.1752" x2="343.228" y2="336.901" gradientUnits="userSpaceOnUse">
<stop offset="0.364583" stop-color="#215EE9"/>
<stop offset="1" stop-color="#215EE9" stop-opacity="0"/>
</linearGradient>
<linearGradient id="paint2_linear" x1="880.75" y1="-11.0001" x2="880.75" y2="246.5" gradientUnits="userSpaceOnUse">
<stop offset="0.364583" stop-color="#215EE9"/>
<stop offset="1" stop-color="#215EE9" stop-opacity="0"/>
</linearGradient>
<linearGradient id="paint3_linear" x1="522.31" y1="116.749" x2="455.664" y2="365.475" gradientUnits="userSpaceOnUse">
<stop offset="0.364583" stop-color="#215EE9"/>
<stop offset="1" stop-color="#215EE9" stop-opacity="0"/>
</linearGradient>
<linearGradient id="paint4_linear" x1="672.25" y1="33.9999" x2="672.25" y2="287.376" gradientUnits="userSpaceOnUse">
<stop offset="0.364583" stop-color="#215EE9"/>
<stop offset="1" stop-color="#215EE9" stop-opacity="0"/>
</linearGradient>
<linearGradient id="paint5_linear" x1="309.267" y1="106.252" x2="243.689" y2="350.995" gradientUnits="userSpaceOnUse">
<stop offset="0.364583" stop-color="#215EE9"/>
<stop offset="1" stop-color="#215EE9" stop-opacity="0"/>
</linearGradient>
</defs>
</svg>
