<svg width="148" height="44" viewBox="0 0 148 44" fill="none" xmlns="http://www.w3.org/2000/svg">
<g clip-path="url(#clip0)">
<path d="M19.064 8.01443C19.064 8.01443 16.4841 4.07245 10.0857 4.07245C3.68736 4.07245 0.936116 7.03456 0.936116 10.7147C0.936116 18.3171 14.3993 17.1908 14.3993 20.5274C14.3993 22.5247 11.6846 22.7124 10.7663 22.7124C5.92468 22.7124 3.83901 19.2397 3.83901 19.2397L0 21.8986C0 21.8986 2.46479 27.255 10.2973 27.255C15.8803 27.255 19.4459 24.6918 19.4459 20.4852C19.4459 12.7298 5.97991 13.6064 5.97991 10.6302C5.97991 8.81033 7.90925 8.61699 9.27223 8.61699C13.935 8.61699 15.7314 11.1887 15.7314 11.1887L19.064 8.01443Z" fill="#0032A0"/>
<path d="M50.497 8.01443C50.497 8.01443 47.917 4.07245 41.5196 4.07245C35.1222 4.07245 32.3728 7.03456 32.3728 10.7147C32.3728 18.3171 45.837 17.1908 45.837 20.5274C45.837 22.5247 43.1222 22.7124 42.203 22.7124C37.3614 22.7124 35.2757 19.2397 35.2757 19.2397L31.4292 21.8949C31.4292 21.8949 33.894 27.2513 41.7265 27.2513C47.3085 27.2513 50.8742 24.6881 50.8742 20.4814C50.8742 12.726 37.4082 13.6027 37.4082 10.6265C37.4082 8.80658 39.3384 8.61323 40.7014 8.61323C45.3633 8.61323 47.155 11.1849 47.155 11.1849L50.497 8.01443Z" fill="#0032A0"/>
<path d="M25.6768 44C38.3425 44 45.5122 34.5712 45.5122 34.5712L42.6477 31.2299C42.6477 31.2299 36.3841 39.0331 25.6768 39.0331C14.9695 39.0331 8.70595 31.2299 8.70595 31.2299L5.84143 34.5712C5.84143 34.5712 13.0121 44 25.6768 44Z" fill="#FF4713"/>
<path d="M27.9646 4.5849H23.0902V26.8712H27.9646V4.5849Z" fill="#0032A0"/>
<path d="M53.7939 0V19.1139C53.7939 25.1207 57.3737 27.1265 60.8055 27.1265C65.4917 27.1265 67.6007 23.4416 67.6007 23.4416L64.6988 20.6982C64.6988 20.6982 63.4444 22.5866 61.5347 22.5866C59.625 22.5866 58.6702 21.648 58.6702 17.7427V9.12756H65.8521V4.58771H58.6664V0" fill="#0032A0"/>
<path d="M89.6668 14.2709C89.6668 7.83329 85.0246 4.07245 79.2376 4.07245C71.5857 4.07245 67.8235 9.30683 67.8235 15.6844C67.8235 22.8175 72.6754 27.255 79.7487 27.255C86.0693 27.255 88.7691 22.7124 88.7691 22.7124L85.7735 19.7596C85.7735 19.7596 84.0305 22.7124 79.8339 22.7124C73.1631 22.7124 72.9066 17.401 72.9066 17.401H89.4094C89.4094 17.401 89.6668 15.4544 89.6668 14.2709ZM72.9534 13.1578C72.9534 13.1578 73.5937 8.48559 79.0232 8.48559C84.4527 8.48559 84.6249 13.1578 84.6249 13.1578H72.9534Z" fill="#0032A0"/>
<path d="M98.0563 6.51554V4.58772H93.1838V26.8712H98.0563V12.299C98.0563 12.299 99.4427 8.65641 103.099 8.65641C106.756 8.65641 106.733 12.1601 106.733 12.3863V26.8712H111.601V12.0869C111.601 12.0869 112.765 8.65641 116.562 8.65641C120.36 8.65641 120.279 12.7026 120.279 13.4581V26.8712H125.159V12.0869C125.159 7.15001 122.549 4.11469 116.868 4.11469C112.011 4.11469 110.158 6.85718 110.158 6.85718C110.158 6.85718 108.738 4.11844 104.126 4.11844C99.1553 4.11844 98.0563 6.51554 98.0563 6.51554Z" fill="#0032A0"/>
<path d="M138.895 4.07245C132.461 4.07245 129.578 7.37245 129.578 7.37245L131.973 10.97C131.973 10.97 134.594 8.61417 138.338 8.61417C143.292 8.61417 143.124 12.2089 143.124 13.6289C143.124 13.6289 141.486 13.0283 138.551 13.0283C135.616 13.0283 128.165 13.6637 128.165 20.0985C128.165 26.7623 134.985 27.1265 136.243 27.1265C141.088 27.1265 143.124 24.429 143.124 24.429V26.8693H147.992V13.2413C148 6.15325 143.507 4.07245 138.895 4.07245ZM143.128 19.8404C143.128 19.8404 141.575 22.8898 137.315 22.8898C135.951 22.8898 133.212 22.5744 133.212 20.06C133.212 17.5456 136.09 17.1044 139.066 17.1044C142.042 17.1044 143.128 17.7051 143.128 17.7051V19.8404Z" fill="#0032A0"/>
</g>
<defs>
<clipPath id="clip0">
<rect width="148" height="44" fill="white"/>
</clipPath>
</defs>
</svg>
