<svg width="27" height="27" viewBox="0 0 27 27" fill="none" xmlns="http://www.w3.org/2000/svg">
<g clip-path="url(#clip0)">
<path d="M1.73074 22.1538L25.2692 22.1539C26.2253 22.1539 27 22.9285 27 23.8846C27 24.8407 26.2253 25.6154 25.2692 25.6154L1.73074 25.6154C0.774666 25.6154 -1.83963e-06 24.8407 -1.75604e-06 23.8846C-1.67245e-06 22.9285 0.774666 22.1538 1.73074 22.1538Z" fill="#FF4713"/>
<path d="M11.4231 11.7692L25.2692 11.7692C26.2253 11.7692 27 12.5439 27 13.5C27 14.4561 26.2253 15.2308 25.2692 15.2308L11.4231 15.2308C10.467 15.2308 9.69226 14.4561 9.69226 13.5C9.69226 12.5439 10.467 11.7692 11.4231 11.7692Z" fill="#FF4713"/>
<path d="M1.73068 11.7692L4.49992 11.7692C5.45599 11.7692 6.23071 12.5439 6.23071 13.5C6.23071 14.4561 5.45605 15.2308 4.49992 15.2308L1.73068 15.2308C0.77461 15.2308 -5.71527e-05 14.4561 -5.70691e-05 13.5C-5.69856e-05 12.5439 0.77461 11.7692 1.73068 11.7692Z" fill="#FFBFAD"/>
<path d="M1.73074 1.38457L25.2692 1.38457C26.2253 1.38457 27 2.15929 27 3.11537C27 4.07144 26.2253 4.84616 25.2692 4.84616L1.73074 4.84616C0.774662 4.84616 -5.65432e-06 4.07149 -5.57074e-06 3.11536C-5.48715e-06 2.15929 0.774662 1.38457 1.73074 1.38457Z" fill="#FF4713"/>
</g>
<defs>
<clipPath id="clip0">
<rect width="27" height="27" fill="white" transform="translate(27 27) rotate(-180)"/>
</clipPath>
</defs>
</svg>
