<svg width="28" height="28" viewBox="0 0 28 28" fill="none" xmlns="http://www.w3.org/2000/svg">
<g clip-path="url(#clip0)">
<path d="M5.37925 28.0001C4.97123 28.0001 4.56492 27.8877 4.20304 27.6639C3.53803 27.2531 3.14133 26.5411 3.14133 25.7592V22.4779C0.799807 19.5113 -0.212128 15.8067 0.289674 12.0051C1.09418 5.90568 6.10728 0.906462 12.2088 0.118832C16.5065 -0.436375 20.7251 0.972258 23.7876 3.98136C26.8503 6.99046 28.3322 11.1807 27.8541 15.4781C27.1614 21.7018 22.1357 26.822 15.9049 27.6532C13.4209 27.9826 10.9087 27.6387 8.6039 26.6515L6.382 27.7617C6.0637 27.9206 5.72062 28.0001 5.37925 28.0001ZM12.4626 2.08737C7.23777 2.76178 2.94544 7.04194 2.25608 12.2646C1.81195 15.6332 2.74933 18.9106 4.89625 21.4916C5.04429 21.6698 5.12525 21.8945 5.12525 22.1261V25.7592C5.12525 25.8763 5.19126 25.9412 5.24595 25.9762C5.30213 26.01 5.39079 26.039 5.49504 25.9867L8.13777 24.6663C8.40822 24.5306 8.7278 24.5259 9.00294 24.6556C11.0821 25.6312 13.3771 25.9878 15.6421 25.6866C20.9823 24.9743 25.2885 20.5887 25.8824 15.2592C26.2928 11.571 25.0221 7.97569 22.3967 5.39683C19.7717 2.8169 16.151 1.60971 12.4626 2.08737ZM12.3357 1.103H12.3453H12.3357Z" fill="black"/>
<path d="M7.15845 17.0267L11.7125 10.5452C11.9022 10.2132 12.3397 10.1229 12.6454 10.3521L15.6961 12.64C15.9029 12.7951 16.1828 12.8094 16.4043 12.6765L20.1192 10.0507C20.6644 9.7236 21.2986 10.3111 21.0145 10.8797L17.3368 17.2429C17.1712 17.574 16.7589 17.6941 16.4415 17.5035L12.3687 15.0599C12.1824 14.9482 11.9519 14.9392 11.7576 15.0364L7.99415 17.9101C7.4321 18.1914 6.84656 17.5726 7.15845 17.0267Z" fill="black"/>
</g>
<defs>
<clipPath id="clip0">
<rect width="28" height="28" fill="white"/>
</clipPath>
</defs>
</svg>
