<svg width="28" height="28" viewBox="0 0 28 28" fill="none" xmlns="http://www.w3.org/2000/svg">
<g clip-path="url(#clip0)">
<path d="M25.8627 20.2571C25.0128 19.5421 24.0422 18.9468 23.1924 18.3509C21.3713 17.0406 19.6722 17.0406 18.337 19.0658C17.6085 20.2571 16.5159 20.2571 15.424 19.7808C12.3891 18.3514 9.96143 16.3262 8.50493 13.2288C7.89773 11.9185 7.89773 10.6083 9.35479 9.65517C10.0833 9.1789 10.9326 8.58302 10.8113 7.3918C10.69 5.96245 7.16976 1.07852 5.71327 0.601695C5.10606 0.363563 4.49942 0.363563 3.89222 0.601695C0.614677 1.67385 -0.84182 4.41348 0.49335 7.51086C4.37753 17.0406 11.4179 23.5926 20.886 27.6425C21.4926 27.8806 22.0998 27.8806 22.3425 27.9997C24.5275 27.9997 27.0765 25.9744 27.8051 23.9498C28.5336 22.0436 27.0765 21.2101 25.8627 20.2571Z" fill="black"/>
<path d="M15.1802 1.43585C16.2897 1.60777 17.2955 1.84145 18.223 2.13021C18.3801 2.17917 18.5445 2.22313 18.6964 2.27543C18.7509 2.29435 18.8002 2.31716 18.854 2.33663C19.8366 2.68827 20.717 3.11334 21.4915 3.62855C24.2151 5.43958 25.6943 8.31553 26.2255 12.6336C26.2255 13.348 25.9829 14.3011 26.9541 14.3011C26.9541 14.3011 26.9541 14.3011 26.9546 14.3011C27.9258 14.3011 27.6832 13.348 27.6832 12.7527C27.7512 9.0672 25.9375 5.57033 23.1493 3.17343C21.4802 1.73908 19.4618 0.700864 17.2893 0.250193C17.0421 0.199006 16.7932 0.152826 16.5426 0.116661C16.1333 0.0582406 15.7194 0.0209629 15.3021 0.00649691C15.242 0.0215193 15.1723 0.0270831 15.0963 0.0270831C14.9115 0.0276395 14.6955 -0.00296161 14.4897 0.000376688C14.09 -0.000179696 13.7265 0.102195 13.7243 0.715886C13.7243 0.717555 13.7237 0.719224 13.7231 0.72145C13.7237 1.43585 14.5736 1.31678 15.1802 1.43585Z" fill="black"/>
<path d="M16.3953 3.46038C15.7887 3.34132 14.8175 2.98356 14.6962 3.93665C14.5748 4.88973 15.5455 4.77067 16.1527 4.88973C20.5222 5.84282 21.9786 7.39123 22.7072 11.5608C22.8285 12.1561 22.5859 13.1092 23.6784 12.9901C24.5277 12.8711 24.1637 12.037 24.285 11.5608C24.285 7.51086 20.7648 3.9372 16.3953 3.46038Z" fill="black"/>
<path d="M16.7586 6.79544C16.2727 6.79544 15.7874 6.79544 15.666 7.2717C15.4234 7.98666 16.0306 8.10572 16.5159 8.22479C18.3364 8.46348 19.3076 9.41601 19.4289 11.2031C19.5502 11.6799 19.7935 12.0371 20.2788 12.0371C21.0073 11.9181 21.0073 11.3222 21.0073 10.8459C21.0073 8.82123 18.8223 6.67693 16.7586 6.79544Z" fill="black"/>
</g>
<defs>
<clipPath id="clip0">
<rect width="28" height="28" fill="white"/>
</clipPath>
</defs>
</svg>
