<svg width="28" height="28" viewBox="0 0 28 28" fill="none" xmlns="http://www.w3.org/2000/svg">
<path d="M27.0091 16.3373C27.0001 16.3865 26.9941 16.4366 26.9846 16.4857L26.9366 16.203C26.9626 16.2471 26.9846 16.2927 27.0091 16.3373C27.1536 15.549 27.2296 14.7417 27.2296 13.9349C27.2296 12.1458 26.8801 10.4098 26.1897 8.77606C25.5238 7.19745 24.5709 5.78021 23.3556 4.56293C22.1422 3.34615 20.7274 2.39046 19.1536 1.72294C17.5238 1.03186 15.7925 0.681558 14.0077 0.681558C13.1664 0.681558 12.324 0.760739 11.5041 0.9186C11.5021 0.919101 11.5001 0.919101 11.4981 0.919602C11.5441 0.944158 11.5906 0.965707 11.636 0.991266L11.3581 0.947666C11.4046 0.938645 11.4516 0.929124 11.4981 0.919602C10.3732 0.320232 9.10786 0 7.82752 0C5.73678 0 3.77103 0.815865 2.29271 2.29825C0.814898 3.78014 0 5.75064 0 7.84643C0 9.18048 0.342457 10.4915 0.984877 11.6506C0.993376 11.6025 0.998875 11.5544 1.00837 11.5063L1.05637 11.7839C1.03137 11.7403 1.00987 11.6952 0.984877 11.6506C0.854393 12.4013 0.785902 13.1686 0.785902 13.9349C0.785902 15.7244 1.13536 17.4599 1.82577 19.0941C2.49069 20.6728 3.44407 22.0895 4.65792 23.3068C5.87277 24.5236 7.28609 25.4802 8.86139 26.1463C10.4912 26.8388 12.223 27.1896 14.0077 27.1896C14.7847 27.1896 15.5631 27.1185 16.3235 26.9832C16.279 26.9581 16.234 26.9356 16.1885 26.9095L16.4709 26.9591C16.4219 26.9686 16.373 26.9742 16.3235 26.9832C17.4943 27.6472 18.8201 28 20.174 28C22.2642 28 24.229 27.1851 25.7073 25.7022C27.1861 24.2214 28 22.2504 28 20.1546C28 18.8165 27.656 17.5005 27.0091 16.3373ZM14.0607 22.0519C9.36333 22.0519 7.26209 19.7371 7.26209 18.0021C7.26209 17.1121 7.91751 16.4887 8.8209 16.4887C10.8311 16.4887 10.3102 19.3818 14.0607 19.3818C15.981 19.3818 17.0409 18.3369 17.0409 17.2675C17.0409 16.6245 16.7244 15.9114 15.4601 15.5987L11.2821 14.5533C7.91751 13.7073 7.30659 11.8842 7.30659 10.1702C7.30659 6.61161 10.6492 5.27556 13.7883 5.27556C16.6799 5.27556 20.0885 6.87772 20.0885 9.0126C20.0885 9.92719 19.2981 10.4594 18.3957 10.4594C16.6799 10.4594 16.9959 8.07897 13.5403 8.07897C11.8255 8.07897 10.8756 8.85724 10.8756 9.97129C10.8756 11.0828 12.23 11.4381 13.4058 11.7068L16.4984 12.3948C19.8855 13.1516 20.7444 15.1336 20.7444 17.0014C20.7444 19.8925 18.5297 22.0519 14.0607 22.0519ZM16.1885 26.909C16.2335 26.9351 16.279 26.9581 16.3235 26.9827C16.373 26.9737 16.4224 26.9681 16.4709 26.9586L16.1885 26.909ZM26.9846 16.4857C26.9941 16.4361 27.0001 16.3865 27.0091 16.3373C26.9846 16.2927 26.9631 16.2471 26.9366 16.203L26.9846 16.4857ZM1.00837 11.5063C0.998875 11.5544 0.993376 11.6025 0.984877 11.6506C1.00987 11.6952 1.03137 11.7403 1.05637 11.7839L1.00837 11.5063ZM11.636 0.991266C11.5911 0.965707 11.5441 0.944158 11.4981 0.919602C11.4516 0.929124 11.4046 0.938645 11.3581 0.947666L11.636 0.991266Z" fill="black"/>
</svg>
