<svg width="25" height="18" viewBox="0 0 25 18" fill="none" xmlns="http://www.w3.org/2000/svg">
<path d="M23.2305 0H1.7695C0.792232 0 0 0.570407 0 1.27404V16.726C0 17.4296 0.792232 18 1.7695 18H23.2305C24.2078 18 25 17.4296 25 16.726V1.27404C25 0.570407 24.2078 0 23.2305 0Z" fill="#FFD500"/>
<path d="M25 9H7.06879e-08V1.27404C-6.56233e-05 1.10672 0.045659 0.941025 0.134561 0.78643C0.223464 0.631835 0.353802 0.491367 0.518128 0.373052C0.682454 0.254737 0.877549 0.160894 1.09226 0.0968842C1.30698 0.0328745 1.53711 -4.72488e-05 1.7695 5.08953e-08H23.2305C23.4629 -4.72488e-05 23.693 0.0328745 23.9077 0.0968842C24.1225 0.160894 24.3175 0.254737 24.4819 0.373052C24.6462 0.491367 24.7765 0.631835 24.8654 0.78643C24.9543 0.941025 25.0001 1.10672 25 1.27404V9Z" fill="#005BBB"/>
</svg>
