<svg width="28" height="28" viewBox="0 0 28 28" fill="none" xmlns="http://www.w3.org/2000/svg">
<g clip-path="url(#clip0)">
<path d="M23.9211 4.06905C21.289 1.44632 17.7884 0.00138891 14.0588 0C6.37465 0 0.120022 6.22371 0.117231 13.8738C0.1163 16.3193 0.758278 18.7063 1.97804 20.8101L0 28L7.39065 26.0708C9.42684 27.1764 11.7198 27.7588 14.0528 27.7597H14.0584C21.7421 27.7597 27.9967 21.5351 28 13.8854C28.0023 10.1775 26.5537 6.69178 23.9211 4.06905ZM14.0593 25.4162H14.0547C11.9752 25.4152 9.93577 24.8592 8.15684 23.8087L7.73351 23.5587L3.34759 24.7036L4.51803 20.448L4.24264 20.0114C3.08289 18.1753 2.47022 16.0535 2.47115 13.8743C2.47348 7.51586 7.6721 2.34309 14.0635 2.34309C17.1585 2.34402 20.0679 3.54543 22.2557 5.72509C24.4435 7.90476 25.6475 10.802 25.6465 13.8836C25.6442 20.2429 20.4461 25.4162 14.0593 25.4162Z" fill="black"/>
<path d="M20.4154 16.7791C20.067 16.6055 18.3546 15.7671 18.035 15.6513C17.7159 15.5356 17.4833 15.4777 17.2512 15.8249C17.019 16.1722 16.3515 16.9527 16.1482 17.1842C15.9449 17.4157 15.7416 17.4444 15.3936 17.2708C15.0452 17.0972 13.9226 16.7314 12.5922 15.5499C11.5566 14.6305 10.8574 13.4953 10.6541 13.1485C10.4508 12.8013 10.6323 12.6138 10.8067 12.4411C10.9635 12.2855 11.1552 12.036 11.3291 11.8337C11.5031 11.6313 11.5613 11.4864 11.6776 11.2554C11.7939 11.0239 11.7357 10.8216 11.6487 10.648C11.5617 10.4744 10.8649 8.76787 10.5746 8.07387C10.2917 7.39794 10.0047 7.4896 9.79072 7.47896C9.58789 7.46877 9.35529 7.46692 9.12315 7.46692C8.89102 7.46692 8.51374 7.55349 8.19415 7.90072C7.87502 8.24795 6.97485 9.08639 6.97485 10.7929C6.97485 12.4994 8.22299 14.148 8.39744 14.3791C8.57142 14.6106 10.8537 18.112 14.3483 19.6139C15.1796 19.9713 15.8281 20.1843 16.3342 20.344C17.1688 20.6079 17.928 20.5708 18.5286 20.4815C19.198 20.3819 20.5894 19.643 20.8797 18.8333C21.17 18.0236 21.17 17.3291 21.083 17.1847C20.996 17.0398 20.7639 16.9527 20.4154 16.7791Z" fill="black"/>
</g>
<defs>
<clipPath id="clip0">
<rect width="28" height="28" fill="white"/>
</clipPath>
</defs>
</svg>
