<svg width="76" height="71" viewBox="0 0 76 71" fill="none" xmlns="http://www.w3.org/2000/svg">
<rect x="5" y="7.52588" width="63.5364" height="63.5364" rx="10" transform="rotate(-6.80257 5 7.52588)" fill="#E9EFFF"/>
<path d="M31.5 48.7C31.0029 48.7 30.6 49.1029 30.6 49.6C30.6 51.5882 28.9882 53.2 27 53.2H5.4C3.41177 53.2 1.8 51.5882 1.8 49.6V6.4C1.8 4.41177 3.41177 2.8 5.4 2.8H5.7438L7.6977 6.7078C8.1525 7.62469 9.08892 8.20336 10.1124 8.2H22.2876C23.3111 8.20336 24.2475 7.62469 24.7023 6.7078L26.6562 2.8H27C28.9882 2.8 30.6 4.41177 30.6 6.4V8.2C30.6 8.69706 31.0029 9.1 31.5 9.1C31.9971 9.1 32.4 8.69706 32.4 8.2V6.4C32.397 3.4189 29.9811 1.00298 27 1H5.4C2.4189 1.00298 0.00297664 3.4189 0 6.4V49.6C0.00297664 52.5811 2.4189 54.997 5.4 55H27C29.9811 54.997 32.397 52.5811 32.4 49.6C32.4 49.1029 31.9971 48.7 31.5 48.7ZM23.0922 5.9023C22.9408 6.20805 22.6288 6.40109 22.2876 6.4H10.1124C9.77124 6.40109 9.45916 6.20805 9.3078 5.9023L7.7562 2.8H24.6438L23.0922 5.9023Z" fill="black"/>
<path d="M23.3999 51.4C23.8969 51.4 24.2999 50.997 24.2999 50.5C24.2999 50.0029 23.8969 49.6 23.3999 49.6H8.99985C8.5028 49.6 8.09985 50.0029 8.09985 50.5C8.09985 50.997 8.5028 51.4 8.99985 51.4H23.3999Z" fill="black"/>
<path d="M48.6001 10.8999H23.4001C20.419 10.9029 18.0031 13.3188 18.0001 16.2999V22.0599L8.14601 27.315C7.56152 27.6285 7.19678 28.238 7.19678 28.9013C7.19678 29.5645 7.56152 30.174 8.14601 30.4875L18.0001 35.7399V41.4999C18.0031 44.481 20.419 46.8969 23.4001 46.8999H48.6001C51.5812 46.8969 53.9972 44.481 54.0001 41.4999V16.2999C53.9972 13.3188 51.5812 10.9029 48.6001 10.8999ZM52.2001 41.4999C52.2001 43.4881 50.5884 45.0999 48.6001 45.0999H23.4001C21.4119 45.0999 19.8001 43.4881 19.8001 41.4999V35.1999C19.8004 34.8674 19.6173 34.5618 19.324 34.4052L9.00011 28.8999L19.3267 23.3928C19.6184 23.2358 19.8003 22.9312 19.8001 22.5999V16.2999C19.8001 14.3117 21.4119 12.6999 23.4001 12.6999H48.6001C50.5884 12.6999 52.2001 14.3117 52.2001 16.2999V41.4999Z" fill="black"/>
<path d="M47.6173 34.6601L45.3943 28.064C45.1326 27.166 44.9998 26.2354 45.0001 25.3001C45.0001 20.3295 40.9706 16.3 36.0001 16.3C31.0295 16.3 27.0001 20.3295 27.0001 25.3001C27.0011 26.2231 26.872 27.1418 26.6167 28.0289L24.3721 34.6961C24.2134 35.24 24.3201 35.8268 24.6601 36.2801C25 36.7333 25.5335 37.0001 26.1001 37.0001H31.5001C31.5001 39.4853 33.5148 41.5001 36.0001 41.5001C38.4854 41.5001 40.5001 39.4853 40.5001 37.0001H45.9001C46.4666 37.0001 47.0001 36.7333 47.3401 36.2801C47.68 35.8268 47.7867 35.24 47.6281 34.6961L47.6173 34.6601ZM36.0001 39.7001C34.5089 39.7001 33.3001 38.4912 33.3001 37.0001H38.7001C38.7001 38.4912 37.4912 39.7001 36.0001 39.7001ZM39.6109 35.2109C39.5842 35.2095 39.5575 35.2095 39.5308 35.2109L32.6323 35.2226C32.5381 35.2072 32.4421 35.2072 32.3479 35.2226L26.0893 35.2334L28.333 28.567C28.6429 27.5057 28.8002 26.4057 28.8001 25.3001C28.8001 21.3236 32.0236 18.1 36.0001 18.1C39.9765 18.1 43.2001 21.3236 43.2001 25.3001C43.2006 26.4185 43.3616 27.5312 43.678 28.604L45.9001 35.2001L39.6109 35.2109Z" fill="#FF4713"/>
</svg>
