<svg width="76" height="71" viewBox="0 0 76 71" fill="none" xmlns="http://www.w3.org/2000/svg">
<rect x="5" y="7.52588" width="63.5364" height="63.5364" rx="10" transform="rotate(-6.80257 5 7.52588)" fill="#E9EFFF"/>
<path d="M26.6499 36.879C26.1317 36.879 25.7119 37.299 25.7119 37.817C25.7119 38.335 26.1317 38.7549 26.6499 38.7549H30.4479C30.966 38.7549 31.3858 38.335 31.3858 37.817C31.3858 37.299 30.966 36.879 30.4479 36.879H26.6499Z" fill="black"/>
<path d="M24.2584 14.7901C23.8644 14.4538 23.2723 14.5003 22.936 14.8941L13.1813 26.315C12.8449 26.709 12.8915 27.301 13.2853 27.6374C13.462 27.7884 13.6786 27.8621 13.894 27.8621C14.1588 27.8621 14.4222 27.7505 14.6077 27.5334L24.3624 16.1125C24.6988 15.7185 24.6522 15.1266 24.2584 14.7901Z" fill="#FF4713"/>
<path d="M13.2712 21.6105C13.4499 21.7693 13.6723 21.8475 13.8939 21.8475C14.1525 21.8475 14.41 21.7412 14.5952 21.5327L17.2319 18.5664C17.5761 18.1792 17.5413 17.5865 17.154 17.2423C16.7669 16.8981 16.1739 16.933 15.8299 17.3202L13.1932 20.2865C12.8491 20.6735 12.8839 21.2663 13.2712 21.6105Z" fill="#FF4713"/>
<path d="M63.0621 24.451C63.5802 24.451 64 24.031 64 23.513V22.4209C64 20.4292 62.3796 18.8088 60.3879 18.8088H57.098V6.76735C57.098 4.69688 55.4134 3.01233 53.343 3.01233H3.7549C1.68455 3.01233 0 4.69688 0 6.76735V38.58C0 40.6505 1.68455 42.335 3.7549 42.335H22.2C22.1356 44.2222 21.9504 47.3549 21.5453 49.1116H17.5011C16.983 49.1116 16.5632 49.5316 16.5632 50.0496C16.5632 50.5676 16.983 50.9875 17.5011 50.9875H39.5966C40.1147 50.9875 40.5345 50.5676 40.5345 50.0496C40.5345 49.5316 40.1147 49.1116 39.5966 49.1116H35.5526C35.1477 47.3555 34.9624 44.2224 34.8979 42.335H37.6731C38.1912 42.335 38.611 41.9151 38.611 41.3971C38.611 40.8791 38.1912 40.4592 37.6731 40.4592H3.7549C2.71879 40.4592 1.87589 39.6161 1.87589 38.58V35.1745H44.5911V40.4592H42.0793C41.5611 40.4592 41.1413 40.8791 41.1413 41.3971C41.1413 41.9151 41.5611 42.335 42.0793 42.335H44.5911V47.3754C44.5911 49.3671 46.2115 50.9875 48.2033 50.9875H60.388C62.3797 50.9875 64.0001 49.3671 64.0001 47.3754V27.8128C64.0001 27.2948 63.5803 26.8749 63.0622 26.8749C62.5441 26.8749 62.1242 27.2948 62.1242 27.8128V47.3754C62.1242 48.3328 61.3454 49.1116 60.388 49.1116H48.2033C47.246 49.1116 46.467 48.3328 46.467 47.3754V22.4209C46.467 21.4636 47.246 20.6847 48.2033 20.6847H48.7956L49.7578 22.727C50.1911 23.6465 51.1278 24.2405 52.1441 24.2405H56.4469C57.4634 24.2405 58.4 23.6463 58.8332 22.7269L59.7955 20.6847H60.3879C61.3452 20.6847 62.1241 21.4636 62.1241 22.4209V23.513C62.1241 24.031 62.5439 24.451 63.0621 24.451ZM24.0765 42.335H33.0216C33.0725 43.8741 33.2225 46.9877 33.6373 49.1116H23.4608C23.8755 46.9877 24.0255 43.8741 24.0765 42.335ZM4.34605 9.37846V33.2986H1.87589V6.76735C1.87589 5.73124 2.71879 4.88822 3.7549 4.88822H53.343C54.3791 4.88822 55.2221 5.73124 55.2221 6.76735V18.8088H52.7518V9.37846C52.7518 8.20641 51.7984 7.25296 50.6263 7.25296H6.47156C5.29951 7.25296 4.34605 8.20641 4.34605 9.37846ZM48.2032 18.8088C46.2113 18.8088 44.591 20.4292 44.591 22.4209V33.2986H6.22194V9.37846C6.22194 9.24077 6.33399 9.12884 6.47156 9.12884H50.6263C50.764 9.12884 50.8759 9.2409 50.8759 9.37846V18.8088H48.2032ZM57.1363 21.9274C57.0112 22.193 56.7406 22.3646 56.4469 22.3646H52.1441C51.8505 22.3646 51.5798 22.1929 51.4546 21.9273L50.869 20.6846H57.7218L57.1363 21.9274Z" fill="black"/>
<path d="M49.6338 34.8982C49.6338 35.4169 50.0544 35.8375 50.5731 35.8375C51.0919 35.8375 51.5124 35.4169 51.5124 34.8982C51.5124 34.3794 51.0919 33.9589 50.5731 33.9589C50.0544 33.9589 49.6338 34.3793 49.6338 34.8982Z" fill="#FF4713"/>
<path d="M53.3562 34.8982C53.3562 35.4169 53.7768 35.8375 54.2955 35.8375C54.8143 35.8375 55.2348 35.4169 55.2348 34.8982C55.2348 34.3794 54.8143 33.9589 54.2955 33.9589C53.7768 33.9589 53.3562 34.3793 53.3562 34.8982Z" fill="#FF4713"/>
<path d="M58.0179 33.9589C57.4992 33.9589 57.0786 34.3794 57.0786 34.8982C57.0786 35.4169 57.4992 35.8375 58.0179 35.8375C58.5367 35.8375 58.9573 35.4169 58.9573 34.8982C58.9573 34.3793 58.5367 33.9589 58.0179 33.9589Z" fill="#FF4713"/>
</svg>
