<svg width="27" height="27" viewBox="0 0 27 27" fill="none" xmlns="http://www.w3.org/2000/svg">
<mask id="mask0" mask-type="alpha" maskUnits="userSpaceOnUse" x="0" y="0" width="27" height="27">
<path d="M13.5 27C19.4155 27 22.7045 27 24.8522 24.8521C27 22.7043 27 19.4177 27 13.5C27 7.58232 27 4.29566 24.8522 2.14784C22.7045 0 19.4155 0 13.5 0C7.58426 0 4.29566 0 2.14785 2.14784C8.04663e-07 4.29566 0 7.58426 0 13.5C0 19.4157 8.04663e-07 22.7043 2.14785 24.8521C4.29566 27 7.58426 27 13.5 27Z" fill="url(#paint0_linear)"/>
</mask>
<g mask="url(#mask0)">
<path d="M27.2685 -0.255615H-0.250488V27.2634H27.2685V-0.255615Z" fill="black"/>
<path d="M18.5701 10.8308C17.55 10.8308 16.7931 11.6181 16.7931 12.5894C16.7931 13.3825 17.3509 14.0014 18.0571 14.1845L16.6096 16.4014H17.9613L19.1919 14.3382H20.1129V16.4014H21.2414V10.8308H18.5701ZM18.7253 13.3958C18.2613 13.3958 17.9735 13.0315 17.9735 12.6163C17.9735 12.2011 18.2372 11.8056 18.7253 11.8056H20.1141V13.3958H18.7253Z" fill="white"/>
<path d="M12.3898 10.8308L12.0151 11.8619L13.552 11.8531L12.642 15.1911C12.3826 16.1644 13.3968 16.8998 14.2625 16.3274L16.2314 14.9918L15.6517 14.14L13.6853 15.502L15.0104 10.8308H12.3898Z" fill="white"/>
<path d="M14.5099 10.1144C14.941 10.1144 15.2908 9.79938 15.2908 9.41084C15.2908 9.02229 14.941 8.70728 14.5099 8.70728C14.0787 8.70728 13.729 9.02229 13.729 9.41084C13.729 9.79938 14.0787 10.1144 14.5099 10.1144Z" fill="white"/>
<path d="M10.5261 15.3731V9.53625H6.1958V12.6515C6.1958 14.1174 5.77131 15.0236 5.52114 15.3707H5.00806V17.9166H6.1062V16.4116H10.2118V17.919H11.3096V15.3731H10.5261ZM7.28757 12.5874V10.5717H9.40015V15.3697H6.67315C6.92042 14.9653 7.28757 13.9362 7.28757 12.5874Z" fill="white"/>
</g>
<defs>
<linearGradient id="paint0_linear" x1="0" y1="8.26685" x2="27" y2="8.26685" gradientUnits="userSpaceOnUse">
<stop stop-color="#13C7FF"/>
<stop offset="1" stop-color="#FFFF36"/>
</linearGradient>
</defs>
</svg>
